<?xml version="1.0" encoding="UTF-8" standalone="no"?>
<!DOCTYPE svg PUBLIC "-//W3C//DTD SVG 1.1//EN"
 "http://www.w3.org/Graphics/SVG/1.1/DTD/svg11.dtd">
<!-- Generated by graphviz version 2.44.1 (0)
 -->
<!-- Title: G Pages: 1 -->
<svg width="430pt" height="468pt"
 viewBox="0.00 0.00 430.00 468.00" xmlns="http://www.w3.org/2000/svg" xmlns:xlink="http://www.w3.org/1999/xlink">
<g id="graph0" class="graph" transform="scale(1 1) rotate(0) translate(4 464)">
<title>G</title>
<polygon fill="white" stroke="transparent" points="-4,4 -4,-464 426,-464 426,4 -4,4"/>
<g id="clust1" class="cluster">
<title>cluster_browser_eql</title>
<polygon fill="none" stroke="black" points="8,-116 8,-452 414,-452 414,-116 8,-116"/>
<text text-anchor="middle" x="211" y="-436.8" font-family="Times,serif" font-size="14.00">browser</text>
</g>
<g id="clust2" class="cluster">
<title>cluster_server_rest</title>
<polygon fill="none" stroke="black" points="80,-8 80,-83 187,-83 187,-8 80,-8"/>
<text text-anchor="middle" x="133.5" y="-67.8" font-family="Times,serif" font-size="14.00">REST server</text>
</g>
<!-- dom -->
<g id="node1" class="node">
<title>dom</title>
<ellipse fill="none" stroke="black" cx="317" cy="-403" rx="30.59" ry="18"/>
<text text-anchor="middle" x="317" y="-399.3" font-family="Times,serif" font-size="14.00">dom</text>
</g>
<!-- fulcro -->
<g id="node2" class="node">
<title>fulcro</title>
<ellipse fill="none" stroke="black" cx="200" cy="-316" rx="37.89" ry="18"/>
<text text-anchor="middle" x="200" y="-312.3" font-family="Times,serif" font-size="14.00">fulcro</text>
</g>
<!-- dom&#45;&gt;fulcro -->
<g id="edge1" class="edge">
<title>dom&#45;&gt;fulcro</title>
<path fill="none" stroke="black" d="M298.46,-388.53C279.58,-374.81 250.05,-353.36 228.25,-337.52"/>
<polygon fill="black" stroke="black" points="230.17,-334.59 220.02,-331.54 226.05,-340.25 230.17,-334.59"/>
<text text-anchor="middle" x="289" y="-355.8" font-family="Times,serif" font-size="14.00">events</text>
</g>
<!-- remote -->
<g id="node3" class="node">
<title>remote</title>
<ellipse fill="none" stroke="black" cx="97" cy="-229" rx="44.39" ry="18"/>
<text text-anchor="middle" x="97" y="-225.3" font-family="Times,serif" font-size="14.00">remote</text>
</g>
<!-- fulcro&#45;&gt;remote -->
<g id="edge2" class="edge">
<title>fulcro&#45;&gt;remote</title>
<path fill="none" stroke="black" d="M162.72,-312.42C119.09,-308.54 50.76,-299.45 35,-280 24.33,-266.82 38.1,-254.8 55.36,-245.84"/>
<polygon fill="black" stroke="black" points="57.06,-248.91 64.58,-241.45 54.05,-242.59 57.06,-248.91"/>
<text text-anchor="middle" x="73.5" y="-268.8" font-family="Times,serif" font-size="14.00">EQL query</text>
</g>
<!-- components -->
<g id="node5" class="node">
<title>components</title>
<ellipse fill="none" stroke="black" cx="271" cy="-229" rx="66.89" ry="18"/>
<text text-anchor="middle" x="271" y="-225.3" font-family="Times,serif" font-size="14.00">components</text>
</g>
<!-- fulcro&#45;&gt;components -->
<g id="edge7" class="edge">
<title>fulcro&#45;&gt;components</title>
<path fill="none" stroke="black" d="M234.9,-308.87C251.54,-304.01 269.96,-295.35 280,-280 284.48,-273.15 284.53,-264.69 282.77,-256.7"/>
<polygon fill="black" stroke="black" points="286.06,-255.5 279.77,-246.97 279.37,-257.56 286.06,-255.5"/>
<text text-anchor="middle" x="299" y="-268.8" font-family="Times,serif" font-size="14.00">data</text>
</g>
<!-- remote&#45;&gt;fulcro -->
<g id="edge3" class="edge">
<title>remote&#45;&gt;fulcro</title>
<path fill="none" stroke="black" d="M112.31,-246.02C122.35,-256.2 135.99,-269.4 149,-280 155.44,-285.25 162.64,-290.52 169.56,-295.32"/>
<polygon fill="black" stroke="black" points="167.85,-298.39 178.09,-301.11 171.79,-292.6 167.85,-298.39"/>
<text text-anchor="middle" x="170.5" y="-268.8" font-family="Times,serif" font-size="14.00">result</text>
</g>
<!-- pathom -->
<g id="node4" class="node">
<title>pathom</title>
<ellipse fill="none" stroke="black" cx="133" cy="-142" rx="46.29" ry="18"/>
<text text-anchor="middle" x="133" y="-138.3" font-family="Times,serif" font-size="14.00">pathom</text>
</g>
<!-- remote&#45;&gt;pathom -->
<g id="edge4" class="edge">
<title>remote&#45;&gt;pathom</title>
<path fill="none" stroke="black" d="M116.48,-212.83C122.21,-207.26 127.79,-200.47 131,-193 133.98,-186.05 135.17,-178.06 135.43,-170.52"/>
<polygon fill="black" stroke="black" points="138.93,-170.29 135.29,-160.34 131.93,-170.38 138.93,-170.29"/>
<text text-anchor="middle" x="149.5" y="-181.8" font-family="Times,serif" font-size="14.00">EQL</text>
</g>
<!-- pathom&#45;&gt;remote -->
<g id="edge6" class="edge">
<title>pathom&#45;&gt;remote</title>
<path fill="none" stroke="black" d="M104.89,-156.47C96.63,-161.92 88.59,-169.08 84,-178 80.25,-185.29 80.83,-193.75 83.14,-201.61"/>
<polygon fill="black" stroke="black" points="79.93,-203.03 86.77,-211.12 86.47,-200.53 79.93,-203.03"/>
<text text-anchor="middle" x="105.5" y="-181.8" font-family="Times,serif" font-size="14.00">result</text>
</g>
<!-- http -->
<g id="node7" class="node">
<title>http</title>
<ellipse fill="none" stroke="black" cx="133" cy="-34" rx="30.59" ry="18"/>
<text text-anchor="middle" x="133" y="-30.3" font-family="Times,serif" font-size="14.00">http</text>
</g>
<!-- pathom&#45;&gt;http -->
<g id="edge10" class="edge">
<title>pathom&#45;&gt;http</title>
<path fill="none" stroke="black" d="M115.3,-125.17C110.35,-119.65 105.61,-113.06 103,-106 97.1,-90.04 104.46,-72.42 113.36,-58.73"/>
<polygon fill="black" stroke="black" points="116.38,-60.53 119.32,-50.35 110.67,-56.47 116.38,-60.53"/>
<text text-anchor="middle" x="122.5" y="-94.8" font-family="Times,serif" font-size="14.00">JSON</text>
</g>
<!-- components&#45;&gt;fulcro -->
<g id="edge5" class="edge">
<title>components&#45;&gt;fulcro</title>
<path fill="none" stroke="black" d="M227.65,-242.74C217.19,-247.93 207.24,-255.12 201,-265 196.74,-271.74 195.41,-280.07 195.45,-287.99"/>
<polygon fill="black" stroke="black" points="191.96,-288.27 196.17,-297.99 198.94,-287.77 191.96,-288.27"/>
<text text-anchor="middle" x="240.5" y="-268.8" font-family="Times,serif" font-size="14.00">EQL Query</text>
</g>
<!-- react -->
<g id="node6" class="node">
<title>react</title>
<ellipse fill="none" stroke="black" cx="314" cy="-142" rx="34.39" ry="18"/>
<text text-anchor="middle" x="314" y="-138.3" font-family="Times,serif" font-size="14.00">react</text>
</g>
<!-- components&#45;&gt;react -->
<g id="edge8" class="edge">
<title>components&#45;&gt;react</title>
<path fill="none" stroke="black" d="M279.7,-210.8C285.84,-198.66 294.17,-182.19 301.09,-168.52"/>
<polygon fill="black" stroke="black" points="304.21,-170.1 305.6,-159.6 297.97,-166.94 304.21,-170.1"/>
</g>
<!-- react&#45;&gt;dom -->
<g id="edge9" class="edge">
<title>react&#45;&gt;dom</title>
<path fill="none" stroke="black" d="M324.5,-159.26C332.44,-172.57 342.68,-192.2 347,-211 360.37,-269.16 340.7,-338.66 327.43,-375.69"/>
<polygon fill="black" stroke="black" points="324.09,-374.65 323.89,-385.24 330.65,-377.08 324.09,-374.65"/>
<text text-anchor="middle" x="375.5" y="-268.8" font-family="Times,serif" font-size="14.00">render</text>
</g>
<!-- http&#45;&gt;pathom -->
<g id="edge11" class="edge">
<title>http&#45;&gt;pathom</title>
<path fill="none" stroke="black" d="M137.55,-51.93C140.85,-66.31 144.34,-87.51 142,-106 141.66,-108.71 141.17,-111.51 140.6,-114.29"/>
<polygon fill="black" stroke="black" points="137.18,-113.54 138.27,-124.08 143.99,-115.16 137.18,-113.54"/>
<text text-anchor="middle" x="161.5" y="-94.8" font-family="Times,serif" font-size="14.00">JSON</text>
</g>
</g>
</svg>
