<?xml version="1.0" encoding="UTF-8" standalone="no"?>
<!DOCTYPE svg PUBLIC "-//W3C//DTD SVG 1.1//EN"
 "http://www.w3.org/Graphics/SVG/1.1/DTD/svg11.dtd">
<!-- Generated by graphviz version 2.44.1 (0)
 -->
<!-- Title: G Pages: 1 -->
<svg width="554pt" height="489pt"
 viewBox="0.00 0.00 554.00 489.00" xmlns="http://www.w3.org/2000/svg" xmlns:xlink="http://www.w3.org/1999/xlink">
<g id="graph0" class="graph" transform="scale(1 1) rotate(0) translate(4 485)">
<title>G</title>
<polygon fill="white" stroke="transparent" points="-4,4 -4,-485 550,-485 550,4 -4,4"/>
<g id="clust1" class="cluster">
<title>cluster_browser_eql</title>
<polygon fill="none" stroke="black" points="8,-116 8,-473 414,-473 414,-116 8,-116"/>
<text text-anchor="middle" x="211" y="-457.8" font-family="Times,serif" font-size="14.00">browser</text>
</g>
<g id="clust2" class="cluster">
<title>cluster_server_eql</title>
<polygon fill="none" stroke="black" points="305,-8 305,-83 413,-83 413,-8 305,-8"/>
<text text-anchor="middle" x="359" y="-67.8" font-family="Times,serif" font-size="14.00">EQL server</text>
</g>
<g id="clust3" class="cluster">
<title>cluster_server_rest</title>
<polygon fill="none" stroke="black" points="431,-116 431,-191 538,-191 538,-116 431,-116"/>
<text text-anchor="middle" x="484.5" y="-175.8" font-family="Times,serif" font-size="14.00">REST server</text>
</g>
<!-- dom -->
<g id="node1" class="node">
<title>dom</title>
<ellipse fill="none" stroke="black" cx="317" cy="-424" rx="30.59" ry="18"/>
<text text-anchor="middle" x="317" y="-420.3" font-family="Times,serif" font-size="14.00">dom</text>
</g>
<!-- fulcro -->
<g id="node2" class="node">
<title>fulcro</title>
<ellipse fill="none" stroke="black" cx="200" cy="-337" rx="37.89" ry="18"/>
<text text-anchor="middle" x="200" y="-333.3" font-family="Times,serif" font-size="14.00">fulcro</text>
</g>
<!-- dom&#45;&gt;fulcro -->
<g id="edge1" class="edge">
<title>dom&#45;&gt;fulcro</title>
<path fill="none" stroke="black" d="M298.46,-409.53C279.58,-395.81 250.05,-374.36 228.25,-358.52"/>
<polygon fill="black" stroke="black" points="230.17,-355.59 220.02,-352.54 226.05,-361.25 230.17,-355.59"/>
<text text-anchor="middle" x="289" y="-376.8" font-family="Times,serif" font-size="14.00">events</text>
</g>
<!-- remote -->
<g id="node3" class="node">
<title>remote</title>
<ellipse fill="none" stroke="black" cx="126" cy="-250" rx="44.39" ry="18"/>
<text text-anchor="middle" x="126" y="-246.3" font-family="Times,serif" font-size="14.00">remote</text>
</g>
<!-- fulcro&#45;&gt;remote -->
<g id="edge2" class="edge">
<title>fulcro&#45;&gt;remote</title>
<path fill="none" stroke="black" d="M162.72,-333.42C119.09,-329.54 50.76,-320.45 35,-301 19.2,-281.49 47.52,-268.41 76.63,-260.54"/>
<polygon fill="black" stroke="black" points="77.62,-263.9 86.47,-258.07 75.92,-257.11 77.62,-263.9"/>
<text text-anchor="middle" x="73.5" y="-289.8" font-family="Times,serif" font-size="14.00">EQL query</text>
</g>
<!-- components -->
<g id="node5" class="node">
<title>components</title>
<ellipse fill="none" stroke="black" cx="271" cy="-250" rx="66.89" ry="18"/>
<text text-anchor="middle" x="271" y="-246.3" font-family="Times,serif" font-size="14.00">components</text>
</g>
<!-- fulcro&#45;&gt;components -->
<g id="edge7" class="edge">
<title>fulcro&#45;&gt;components</title>
<path fill="none" stroke="black" d="M234.9,-329.87C251.54,-325.01 269.96,-316.35 280,-301 284.48,-294.15 284.53,-285.69 282.77,-277.7"/>
<polygon fill="black" stroke="black" points="286.06,-276.5 279.77,-267.97 279.37,-278.56 286.06,-276.5"/>
<text text-anchor="middle" x="299" y="-289.8" font-family="Times,serif" font-size="14.00">data</text>
</g>
<!-- remote&#45;&gt;fulcro -->
<g id="edge3" class="edge">
<title>remote&#45;&gt;fulcro</title>
<path fill="none" stroke="black" d="M131.24,-268.04C135.01,-278.36 140.87,-291.36 149,-301 154.21,-307.18 160.76,-312.75 167.41,-317.53"/>
<polygon fill="black" stroke="black" points="165.55,-320.5 175.81,-323.16 169.45,-314.68 165.55,-320.5"/>
<text text-anchor="middle" x="170.5" y="-289.8" font-family="Times,serif" font-size="14.00">result</text>
</g>
<!-- fetch -->
<g id="node4" class="node">
<title>fetch</title>
<ellipse fill="none" stroke="black" cx="176" cy="-142" rx="34.39" ry="18"/>
<text text-anchor="middle" x="176" y="-138.3" font-family="Times,serif" font-size="14.00">fetch</text>
</g>
<!-- remote&#45;&gt;fetch -->
<g id="edge4" class="edge">
<title>remote&#45;&gt;fetch</title>
<path fill="none" stroke="black" d="M148.4,-234.2C155.11,-228.66 161.78,-221.79 166,-214 173.15,-200.78 175.78,-184.24 176.56,-170.45"/>
<polygon fill="black" stroke="black" points="180.07,-170.19 176.85,-160.1 173.08,-170 180.07,-170.19"/>
<text text-anchor="middle" x="186.5" y="-202.8" font-family="Times,serif" font-size="14.00">EQL</text>
</g>
<!-- fetch&#45;&gt;remote -->
<g id="edge6" class="edge">
<title>fetch&#45;&gt;remote</title>
<path fill="none" stroke="black" d="M155.27,-156.69C142.16,-166.67 126.35,-181.47 119,-199 116.02,-206.11 115.91,-214.24 117.06,-221.85"/>
<polygon fill="black" stroke="black" points="113.67,-222.75 119.25,-231.76 120.51,-221.24 113.67,-222.75"/>
<text text-anchor="middle" x="140.5" y="-202.8" font-family="Times,serif" font-size="14.00">result</text>
</g>
<!-- pathom -->
<g id="node7" class="node">
<title>pathom</title>
<ellipse fill="none" stroke="black" cx="359" cy="-34" rx="46.29" ry="18"/>
<text text-anchor="middle" x="359" y="-30.3" font-family="Times,serif" font-size="14.00">pathom</text>
</g>
<!-- fetch&#45;&gt;pathom -->
<g id="edge10" class="edge">
<title>fetch&#45;&gt;pathom</title>
<path fill="none" stroke="black" d="M167.95,-124.17C164.21,-113.66 161.97,-100.41 169,-91 185.57,-68.84 256.38,-52.41 306.69,-43.27"/>
<polygon fill="black" stroke="black" points="307.54,-46.67 316.78,-41.48 306.32,-39.78 307.54,-46.67"/>
<text text-anchor="middle" x="221" y="-94.8" font-family="Times,serif" font-size="14.00">query@transit</text>
</g>
<!-- components&#45;&gt;fulcro -->
<g id="edge5" class="edge">
<title>components&#45;&gt;fulcro</title>
<path fill="none" stroke="black" d="M227.65,-263.74C217.19,-268.93 207.24,-276.12 201,-286 196.74,-292.74 195.41,-301.07 195.45,-308.99"/>
<polygon fill="black" stroke="black" points="191.96,-309.27 196.17,-318.99 198.94,-308.77 191.96,-309.27"/>
<text text-anchor="middle" x="240.5" y="-289.8" font-family="Times,serif" font-size="14.00">EQL Query</text>
</g>
<!-- react -->
<g id="node6" class="node">
<title>react</title>
<ellipse fill="none" stroke="black" cx="284" cy="-142" rx="34.39" ry="18"/>
<text text-anchor="middle" x="284" y="-138.3" font-family="Times,serif" font-size="14.00">react</text>
</g>
<!-- components&#45;&gt;react -->
<g id="edge8" class="edge">
<title>components&#45;&gt;react</title>
<path fill="none" stroke="black" d="M273.09,-231.97C275.14,-215.28 278.29,-189.58 280.68,-170.08"/>
<polygon fill="black" stroke="black" points="284.17,-170.34 281.92,-159.99 277.23,-169.49 284.17,-170.34"/>
</g>
<!-- react&#45;&gt;dom -->
<g id="edge9" class="edge">
<title>react&#45;&gt;dom</title>
<path fill="none" stroke="black" d="M299.48,-158.37C314.94,-174.9 337.7,-202.78 347,-232 365.18,-289.16 343.36,-359.59 328.53,-396.91"/>
<polygon fill="black" stroke="black" points="325.14,-395.94 324.57,-406.52 331.61,-398.61 325.14,-395.94"/>
<text text-anchor="middle" x="377.5" y="-289.8" font-family="Times,serif" font-size="14.00">render</text>
</g>
<!-- pathom&#45;&gt;fetch -->
<g id="edge11" class="edge">
<title>pathom&#45;&gt;fetch</title>
<path fill="none" stroke="black" d="M343.28,-51.24C327.02,-67.2 300.24,-91.24 273,-106 259.9,-113.1 255.07,-111.1 241,-116 231.51,-119.3 221.33,-123.1 211.91,-126.72"/>
<polygon fill="black" stroke="black" points="210.48,-123.52 202.42,-130.39 213.01,-130.04 210.48,-123.52"/>
<text text-anchor="middle" x="348.5" y="-94.8" font-family="Times,serif" font-size="14.00">result@transit</text>
</g>
<!-- http -->
<g id="node8" class="node">
<title>http</title>
<ellipse fill="none" stroke="black" cx="480" cy="-142" rx="30.59" ry="18"/>
<text text-anchor="middle" x="480" y="-138.3" font-family="Times,serif" font-size="14.00">http</text>
</g>
<!-- pathom&#45;&gt;http -->
<g id="edge12" class="edge">
<title>pathom&#45;&gt;http</title>
<path fill="none" stroke="black" d="M371.83,-51.4C384.21,-66.61 403.96,-89.32 424,-106 431.78,-112.48 440.86,-118.65 449.41,-123.96"/>
<polygon fill="black" stroke="black" points="447.69,-127 458.06,-129.16 451.29,-121 447.69,-127"/>
<text text-anchor="middle" x="443.5" y="-94.8" font-family="Times,serif" font-size="14.00">JSON</text>
</g>
<!-- http&#45;&gt;pathom -->
<g id="edge13" class="edge">
<title>http&#45;&gt;pathom</title>
<path fill="none" stroke="black" d="M477.4,-123.67C475.09,-113.24 470.82,-100.24 463,-91 447.26,-72.4 423.73,-59.01 403.03,-49.99"/>
<polygon fill="black" stroke="black" points="404.34,-46.74 393.76,-46.15 401.66,-53.21 404.34,-46.74"/>
<text text-anchor="middle" x="490.5" y="-94.8" font-family="Times,serif" font-size="14.00">JSON</text>
</g>
</g>
</svg>
